<svg width="640" height="640" viewBox="0 0 640 640" xml:space="preserve" xmlns="http://www.w3.org/2000/svg">
<defs>
    <linearGradient id="cloud" gradientUnits="userSpaceOnUse" x1="160" y1="152" x2="494" y2="494">
        <stop stop-color="#5CDD8B"/>
        <stop offset="1" stop-color="#86E6A9"/>
    </linearGradient>
    <linearGradient id="pulse" gradientUnits="userSpaceOnUse" x1="190" y1="321" x2="449" y2="321">
        <stop stop-color="#FFFFFF"/>
        <stop offset="1" stop-color="#EAFBF1"/>
    </linearGradient>
</defs>
<g>
    <path
        d="M 199 472 C 128 472 77 421 77 356 C 77 296 120 248 178 239 C 198 171 258 126 331 126 C 404 126 464 173 484 240 C 536 253 577 300 577 357 C 577 424 523 472 454 472 Z"
        fill="url(#cloud)"
        stroke="#F2F2F2"
        stroke-opacity="0.54"
        stroke-width="64"
        stroke-linejoin="round"
    />
    <path
        d="M 165 335 H 242 L 280 265 L 335 407 L 383 320 H 475"
        fill="none"
        stroke="url(#pulse)"
        stroke-width="34"
        stroke-linecap="round"
        stroke-linejoin="round"
    />
    <circle cx="475" cy="320" r="21" fill="#FFFFFF" opacity="0.96"/>
</g>
</svg>
