<svg width="640" height="640" viewBox="0 0 640 640" fill="none" xmlns="http://www.w3.org/2000/svg">
<path d="M490.4 235.64C544.09 358.38 544.09 435.34 490.4 466.5C409.85 513.24 199.96 527.49 139.54 455.64C99.2601 407.74 99.2601 334.4 139.54 235.64C180.5 168.18 238.71 134.45 314.17 134.45C389.64 134.45 448.38 168.18 490.4 235.64Z" fill="url(#paint0_linear_381_799)"/>
<path d="M490.4 235.64C544.09 358.38 544.09 435.34 490.4 466.5C409.85 513.24 199.96 527.49 139.54 455.64C99.2601 407.74 99.2601 334.4 139.54 235.64C180.5 168.18 238.71 134.45 314.17 134.45C389.64 134.45 448.38 168.18 490.4 235.64Z" stroke="#F2F2F2" stroke-opacity="0.51" stroke-width="200"/>
<defs>
<linearGradient id="paint0_linear_381_799" x1="259.78" y1="261.15" x2="463.85" y2="456.49" gradientUnits="userSpaceOnUse">
<stop stop-color="#5CDD8B"/>
<stop offset="1" stop-color="#86E6A9"/>
</linearGradient>
</defs>
</svg>
