<?xml version="1.0" encoding="UTF-8" standalone="no"?>
<!DOCTYPE svg PUBLIC "-//W3C//DTD SVG 1.1//EN" "http://www.w3.org/Graphics/SVG/1.1/DTD/svg11.dtd">
<svg version="1.1" xmlns="http://www.w3.org/2000/svg" xmlns:xlink="http://www.w3.org/1999/xlink" preserveAspectRatio="xMidYMid meet" viewBox="0 0 640 640" width="640" height="640"><defs><path d="M407.55 916.24C471.25 916.24 522.89 967.88 522.89 1031.57C522.89 1113.88 522.89 1245.44 522.89 1327.74C522.89 1391.44 471.25 1443.08 407.55 1443.08C325.25 1443.08 193.68 1443.08 111.38 1443.08C47.69 1443.08 -3.95 1391.44 -3.95 1327.74C-3.95 1245.44 -3.95 1113.88 -3.95 1031.57C-3.95 967.88 47.69 916.24 111.38 916.24C193.68 916.24 325.25 916.24 407.55 916.24Z" id="a1LdTs1gvU"></path><linearGradient id="gradientcoH7TNh19" gradientUnits="userSpaceOnUse" x1="256.07" y1="1132.14" x2="609.11" y2="1480.42"><stop style="stop-color: #c2efd2;stop-opacity: 1" offset="0%"></stop><stop style="stop-color: #8ff0e5;stop-opacity: 1" offset="100%"></stop></linearGradient><path d="M-467.41 394.63C-467.41 554.76 -597.42 684.76 -757.55 684.76C-917.68 684.76 -1047.69 554.76 -1047.69 394.63C-1047.69 234.5 -917.68 104.49 -757.55 104.49C-597.42 104.49 -467.41 234.5 -467.41 394.63Z" id="a1uaEBd4xM"></path><path d="M-96.99 -586.14C-57.24 -619.85 -5.79 -604.75 19.26 -580.46C31.43 -568.66 56.57 -546.36 40.97 -491.67C32.76 -462.87 10.41 -436.4 -26.05 -412.27C-15.07 -377.85 -5.6 -344.76 2.36 -313C14.29 -265.36 13.55 -189.67 -26.05 -155.4C-67.27 -119.73 -166.91 -104.09 -234.24 -103.09C-301.57 -102.1 -406.19 -113.09 -461.6 -155.4C-517.01 -197.7 -512.24 -257.07 -498.04 -313C-488.58 -350.28 -476.43 -383.38 -461.6 -412.27C-505.54 -441.3 -530.54 -467.76 -536.6 -491.67C-545.68 -527.54 -530.93 -565.61 -501.12 -586.14C-471.31 -606.67 -435.18 -606.9 -400.45 -586.14C-377.3 -572.3 -354.79 -542.13 -332.92 -495.62C-287.85 -505.25 -254.96 -509.57 -234.24 -508.6C-214.74 -507.68 -186.57 -503.36 -149.72 -495.62C-135.81 -537.95 -118.23 -568.12 -96.99 -586.14Z" id="f8p7QlEjN3"></path><linearGradient id="gradienta4Tg99ZOOp" gradientUnits="userSpaceOnUse" x1="-440.25" y1="-388.59" x2="-100.49" y2="-147.33"><stop style="stop-color: #5cdd8b;stop-opacity: 1" offset="0%"></stop><stop style="stop-color: #7ae6a1;stop-opacity: 1" offset="100%"></stop></linearGradient><path d="M-86.03 -10.69C-61.35 -10.69 -41.34 9.32 -41.34 34.01C-41.34 119.07 -41.34 329.58 -41.34 414.65C-41.34 439.33 -61.35 459.34 -86.03 459.34C-136.01 459.34 -241.25 459.34 -291.23 459.34C-315.92 459.34 -335.93 439.33 -335.93 414.65C-335.93 329.58 -335.93 119.07 -335.93 34.01C-335.93 9.32 -315.92 -10.69 -291.23 -10.69C-241.25 -10.69 -136.01 -10.69 -86.03 -10.69Z" id="d32ZZRxd1S"></path><linearGradient id="gradientb1JxIe4xUm" gradientUnits="userSpaceOnUse" x1="-791.65" y1="-33.27" x2="892.1" y2="418.94"><stop style="stop-color: #5cdd8b;stop-opacity: 1" offset="0%"></stop><stop style="stop-color: #5ae98f;stop-opacity: 1" offset="100%"></stop></linearGradient><path d="M-257.95 458.12C-247.92 449.62 -234.93 453.43 -228.61 459.56C-225.54 462.54 -219.19 468.17 -223.13 481.97C-225.2 489.24 -230.84 495.92 -240.05 502.01C-237.27 510.7 -234.88 519.06 -232.88 527.07C-229.86 539.1 -230.05 558.21 -240.05 566.86C-250.45 575.86 -275.6 579.81 -292.6 580.06C-309.6 580.31 -336.01 577.54 -349.99 566.86C-363.98 556.18 -362.77 541.19 -359.19 527.07C-356.8 517.66 -353.73 509.31 -349.99 502.01C-361.08 494.69 -367.39 488.01 -368.92 481.97C-371.22 472.92 -367.49 463.31 -359.97 458.12C-352.44 452.94 -343.32 452.88 -334.56 458.12C-328.71 461.62 -323.03 469.23 -317.51 480.97C-306.13 478.54 -297.83 477.45 -292.6 477.7C-287.68 477.93 -280.56 479.02 -271.26 480.97C-267.75 470.29 -263.32 462.67 -257.95 458.12Z" id="b19LRRbPrG"></path><path d="M490.4 235.64C544.09 358.38 544.09 435.34 490.4 466.5C409.85 513.24 199.96 527.49 139.54 455.64C99.26 407.74 99.26 334.4 139.54 235.64C180.5 168.18 238.71 134.45 314.17 134.45C389.64 134.45 448.38 168.18 490.4 235.64Z" id="bN5StdyPU"></path><linearGradient id="gradientb1HT15TsY0" gradientUnits="userSpaceOnUse" x1="259.78" y1="261.15" x2="463.85" y2="456.49"><stop style="stop-color: #5cdd8b;stop-opacity: 1" offset="0%"></stop><stop style="stop-color: #86e6a9;stop-opacity: 1" offset="100%"></stop></linearGradient><path d="M393.81 -775.89C428.26 -748.09 439.99 -725.54 429 -708.22C412.51 -682.24 353.16 -646.07 324.5 -657.93C305.39 -665.83 294.22 -687.32 290.97 -722.41C292.69 -748.43 304.61 -767.19 326.73 -778.69C348.85 -790.19 371.21 -789.26 393.81 -775.89Z" id="arh6miPP2"></path><linearGradient id="gradientc2g6rBSAiq" gradientUnits="userSpaceOnUse" x1="330.1" y1="-733.26" x2="419.69" y2="-707.1"><stop style="stop-color: #5cdd8b;stop-opacity: 1" offset="0%"></stop><stop style="stop-color: #86e6a9;stop-opacity: 1" offset="100%"></stop></linearGradient><path d="M675.36 -369.24C669.97 -325.31 657.02 -303.43 636.51 -303.61C605.74 -303.87 543.67 -335.15 538.59 -365.74C535.2 -386.14 547.54 -406.99 575.61 -428.29C598.61 -440.58 620.83 -440.37 642.29 -427.67C663.74 -414.97 674.77 -395.49 675.36 -369.24Z" id="a2VENFzCvL"></path><linearGradient id="gradientc18GuJy4sZ" gradientUnits="userSpaceOnUse" x1="605.5" y1="-400.8" x2="630.64" y2="-310.92"><stop style="stop-color: #5cdd8b;stop-opacity: 1" offset="0%"></stop><stop style="stop-color: #86e6a9;stop-opacity: 1" offset="100%"></stop></linearGradient></defs><g><g><g><use xlink:href="#a1LdTs1gvU" opacity="1" fill="url(#gradientcoH7TNh19)"></use></g><g><use xlink:href="#a1uaEBd4xM" opacity="1" fill="#ebf0ed" fill-opacity="1"></use></g><g><use xlink:href="#f8p7QlEjN3" opacity="1" fill="url(#gradienta4Tg99ZOOp)"></use><g><use xlink:href="#f8p7QlEjN3" opacity="1" fill-opacity="0" stroke="#ffffff" stroke-width="98" stroke-opacity="0.57"></use></g></g><g><use xlink:href="#d32ZZRxd1S" opacity="1" fill="url(#gradientb1JxIe4xUm)"></use><g><use xlink:href="#d32ZZRxd1S" opacity="1" fill-opacity="0" stroke="#f2f2f2" stroke-width="60" stroke-opacity="0.51"></use></g></g><g><use xlink:href="#b19LRRbPrG" opacity="1" fill="#d8ad9a" fill-opacity="1"></use><g><use xlink:href="#b19LRRbPrG" opacity="1" fill-opacity="0" stroke="#ffffff" stroke-width="17" stroke-opacity="1"></use></g></g><g><use xlink:href="#bN5StdyPU" opacity="1" fill="url(#gradientb1HT15TsY0)"></use><g><use xlink:href="#bN5StdyPU" opacity="1" fill-opacity="0" stroke="#f2f2f2" stroke-width="200" stroke-opacity="0.51"></use></g></g><g><use xlink:href="#arh6miPP2" opacity="1" fill="url(#gradientc2g6rBSAiq)"></use></g><g><use xlink:href="#a2VENFzCvL" opacity="1" fill="url(#gradientc18GuJy4sZ)"></use></g></g></g></svg>
