<?xml version="1.0" encoding="UTF-8"?>
<svg version="1.1" xmlns="http://www.w3.org/2000/svg" width="798" height="884">
<path d="M0 0 C3.62659322 12.65429513 6.87029255 25.37700218 9.94278717 38.17640686 C10.72190314 41.42197421 11.50488689 44.66658861 12.28875732 47.91101074 C13.94594112 54.77318105 15.59812189 61.63655093 17.25 68.5 C19.17985666 76.51567533 21.1117755 84.53084708 23.0474472 92.54512024 C23.81895791 95.74324981 24.58744906 98.94209501 25.35577393 102.14099121 C25.82461304 104.08426101 26.29357968 106.02750006 26.76269531 107.97070312 C27.08214615 109.30608376 27.08214615 109.30608376 27.40805054 110.66844177 C27.70218338 111.88304832 27.70218338 111.88304832 28.0022583 113.12219238 C28.25661085 114.17944897 28.25661085 114.17944897 28.51610184 115.25806427 C28.96499736 117.08957486 28.96499736 117.08957486 30 119 C30.51507614 118.81429947 31.03015228 118.62859894 31.56083679 118.43727112 C36.92893373 116.50269152 42.2987861 114.57304706 47.66967773 112.64624023 C49.67306089 111.92679862 51.67599525 111.20610595 53.6784668 110.48413086 C56.55920809 109.44574904 59.44154099 108.41189808 62.32421875 107.37890625 C63.66355721 106.89448814 63.66355721 106.89448814 65.029953 106.40028381 C65.87044693 106.10004807 66.71094086 105.79981232 67.5769043 105.49047852 C68.31192673 105.22622574 69.04694916 104.96197296 69.804245 104.68971252 C72.2089906 103.93435359 74.49929902 103.33401719 77 103 C81.08698337 105.82196471 82.39703992 109.88342421 83.875 114.4375 C84.1121875 115.09298828 84.349375 115.74847656 84.59375 116.42382812 C85.58566924 119.40257355 86.12168499 121.50787248 85.36035156 124.58691406 C83.61706413 127.6792782 82.31862739 128.11035048 78.9921875 129.23828125 C78.00605469 129.58310547 77.01992188 129.92792969 76.00390625 130.28320312 C74.97136719 130.62287109 73.93882812 130.96253906 72.875 131.3125 C71.31458984 131.85100586 71.31458984 131.85100586 69.72265625 132.40039062 C67.15377045 133.28418161 64.58014973 134.1497738 62 135 C63.8892848 136.8892848 66.69706681 136.35334046 69.23266602 136.54394531 C123.96308593 140.7133175 177.06354774 163.40741078 213.34814453 205.56640625 C230.1901265 225.81268226 242.44754533 248.11070768 251 273 C251.27827637 273.79954102 251.55655273 274.59908203 251.84326172 275.42285156 C280.06633752 357.96299961 259.76784989 455.29966615 223 532 C222.58282715 532.87672363 222.1656543 533.75344727 221.73583984 534.65673828 C213.2953028 552.29148758 203.46167196 568.91554749 192.7421875 585.25 C191.33591149 587.469772 190.14794371 589.64498562 189 592 C214.78164772 585.92831847 238.94166267 578.26573258 263.09912109 567.31201172 C297.57678619 551.71842712 297.57678619 551.71842712 314 554 C317.71600534 555.53765738 319.56179163 556.37190133 321.875 559.6875 C324.70406279 568.0175182 322.36974019 575.15715336 319 583 C316.91765172 586.8642058 314.55704407 590.4349925 312 594 C311.46117187 594.763125 310.92234375 595.52625 310.3671875 596.3125 C302.41942985 606.86198998 292.39741972 616.85995186 282 625 C294.65225116 626.64900816 307.11750203 627.43279986 319.875 627.4375 C320.78122101 627.44056152 321.68744202 627.44362305 322.62112427 627.44677734 C340.30448761 627.46213699 357.62332869 625.72950271 375.13934326 623.43022156 C390.03777315 621.48384339 406.69433777 619.62236082 420 628 C423.06033578 630.76417426 423.71137144 633.77918494 424.05078125 637.8671875 C423.82849515 647.20320361 416.70015262 654.46803614 410.3359375 660.54296875 C383.92105534 683.50469246 349.09178366 693.61583588 315 698 C333.10678701 716.10678701 379.34653123 717.32033305 403.46704102 718.78588867 C411.22112624 719.28988921 418.69533411 720.14899667 426.2734375 721.9140625 C427.31133171 722.15509705 427.31133171 722.15509705 428.37019348 722.40100098 C435.7500821 724.24695278 441.4455407 727.26307932 446.625 732.8125 C448.45987353 737.06607045 448.89596112 740.44295637 448 745 C445.73188269 750.18692401 442.21457568 754.26435337 438 758 C437.42121094 758.52078125 436.84242188 759.0415625 436.24609375 759.578125 C423.58088672 770.24862201 407.90846988 775.37642876 392 779 C390.71041382 779.2947522 390.71041382 779.2947522 389.39477539 779.59545898 C379.6467134 781.51974507 369.83141604 781.35256123 359.9375 781.3125 C358.54313721 781.30976578 358.54313721 781.30976578 357.12060547 781.30697632 C341.57229888 781.25574274 326.37390866 780.49397891 311 778 C309.90848633 777.82307617 308.81697266 777.64615234 307.69238281 777.46386719 C281.63192385 773.09404218 256.19590242 765.67176997 232 755 C237.06180441 760.32287169 242.39206934 765.09098215 248.12890625 769.67578125 C249.95884261 771.15715831 251.7620934 772.67257393 253.52734375 774.23046875 C280.39082888 797.78039624 312.54301449 813.54144737 347.01782227 821.98535156 C360.12749553 825.27514569 372.99415901 829.30091205 382 840 C384.38051629 844.95627998 384.96302184 849.09690988 383.1953125 854.42578125 C377.64560527 867.0370125 365.05531469 872.19345779 353.0078125 877.2578125 C317.05085371 891.00905736 275.05818406 879.10384218 241.3125 864.375 C238.18675402 862.9602658 235.08983817 861.49139857 232 860 C231.06559082 859.54915039 230.13118164 859.09830078 229.16845703 858.63378906 C208.05856933 848.32040455 188.19307756 835.89885775 170 821 C168.48212891 819.76830078 168.48212891 819.76830078 166.93359375 818.51171875 C160.5483473 813.256238 154.49651621 807.69302179 148.5 802 C121.2924319 776.23439086 86.14235901 749.31914352 46.88891602 749.57763672 C10.523859 750.75729403 -21.37165486 775.60905007 -47 799 C-49.4844026 801.23596234 -51.97194237 803.46837018 -54.4609375 805.69921875 C-56.14746582 807.22747287 -57.81960101 808.7717694 -59.4765625 810.33203125 C-102.10844914 850.19477722 -165.37156434 884.47889188 -225 883 C-244.6836434 882.09984597 -266.51341133 876.15432746 -281 862 C-284.86190539 857.37873119 -286.34299133 853.11459558 -286.19921875 847.04296875 C-285.5802165 840.6951614 -281.36344623 837.1263735 -276.9375 833.02734375 C-268.68421155 827.33125771 -259.28681298 824.75692644 -249.69497681 822.23516846 C-204.2258805 810.20508689 -168.27538593 786.6652363 -134 755 C-135.00075562 755.39940796 -135.00075562 755.39940796 -136.02172852 755.80688477 C-166.41679001 767.87608503 -196.4477912 776.33406775 -229 780 C-229.77988281 780.09498779 -230.55976563 780.18997559 -231.36328125 780.2878418 C-254.18374039 782.75931535 -280.93611314 783.83922328 -303 777 C-303.80824219 776.75330566 -304.61648438 776.50661133 -305.44921875 776.25244141 C-321.14528551 771.29722963 -338.98735588 764.08273059 -348.0625 749.5625 C-350.31266928 745.03090909 -350.98879374 740.98163702 -350 736 C-346.94942049 729.39041106 -341.68991447 726.4628056 -335.15234375 723.87109375 C-323.61062141 719.99524895 -311.82475747 719.18011181 -299.77172852 718.35717773 C-270.74592581 716.335977 -244.08882382 709.50969698 -217 699 C-217 698.67 -217 698.34 -217 698 C-217.91773193 697.86537354 -217.91773193 697.86537354 -218.85400391 697.72802734 C-253.82317921 692.4999045 -296.71982692 682.00775589 -319.88671875 652.60546875 C-323.99613585 646.60552078 -326.78630967 641.46994184 -326 634 C-323.76014965 629.240318 -321.07879139 626.8961295 -316.390625 624.8125 C-303.77178692 620.52374457 -290.41562968 621.72395965 -277.4375 623.375 C-272.9594177 623.9259756 -268.47999679 624.46482978 -264 625 C-263.30748138 625.08685059 -262.61496277 625.17370117 -261.90145874 625.26318359 C-249.96907 626.74793665 -238.20633672 627.31644654 -226.18383789 627.26074219 C-223.43548615 627.24999212 -220.68778572 627.26073297 -217.93945312 627.2734375 C-206.49642698 627.28109862 -195.33979914 626.52692947 -184 625 C-184.76199707 624.30471191 -185.52399414 623.60942383 -186.30908203 622.89306641 C-187.75850877 621.57040862 -189.2077352 620.24753042 -190.65576172 618.92333984 C-193.42572338 616.39895245 -196.24177881 613.95545686 -199.125 611.5625 C-210.60473798 601.50896165 -223.42019386 584.82214753 -225.3359375 569.2734375 C-225.52050566 564.46046789 -225.3715361 560.70868972 -222 557 C-213.53832923 552.008223 -204.20238425 553.21800026 -194.9375 555.4375 C-183.96453974 558.66484125 -173.60882903 563.57184626 -163.20068359 568.26123047 C-128.82320131 584.34178572 -128.82320131 584.34178572 -92 591 C-95.04965958 585.04781353 -98.3693033 579.3630763 -102.00268555 573.75390625 C-142.59387043 510.95769523 -166.18463229 434.27910005 -166.25 359.4375 C-166.25067474 358.72989532 -166.25134949 358.02229065 -166.25204468 357.29324341 C-166.16550386 299.31817636 -149.54488952 239.56323477 -107.6796875 197.63671875 C-106.79539063 196.76660156 -105.91109375 195.89648438 -105 195 C-106.09671021 195.40895508 -106.09671021 195.40895508 -107.21557617 195.82617188 C-110.53650554 197.05917064 -113.8618873 198.27969253 -117.1875 199.5 C-118.91323242 200.14388672 -118.91323242 200.14388672 -120.67382812 200.80078125 C-121.78564453 201.20683594 -122.89746094 201.61289063 -124.04296875 202.03125 C-125.06414795 202.40830078 -126.08532715 202.78535156 -127.13745117 203.17382812 C-129.92500452 203.97835525 -132.11930784 204.16659425 -135 204 C-138.64420207 197.25822616 -142.40856706 189.79095122 -142 182 C-136.14068731 178.92801217 -130.26994861 176.51429033 -124.03125 174.328125 C-123.11033569 174.00084412 -122.18942139 173.67356323 -121.24060059 173.33636475 C-118.32874682 172.30276119 -115.41444412 171.27627382 -112.5 170.25 C-110.51285401 169.54604365 -108.52587311 168.8416211 -106.5390625 168.13671875 C-101.69460005 166.41908408 -96.84792985 164.70782233 -92 163 C-96.8166999 153.26119342 -101.75494991 143.6131892 -106.9375 134.0625 C-113.02906702 122.78610566 -118.9304029 111.41957188 -124.76959229 100.01077271 C-129.77712227 90.23276483 -134.88576547 80.52467742 -140.24682617 70.93408203 C-142.41304814 67.0357539 -144.51096165 63.11096372 -146.44921875 59.09375 C-146.79686279 58.37896484 -147.14450684 57.66417969 -147.50268555 56.92773438 C-147.66679932 56.29158203 -147.83091309 55.65542969 -148 55 C-145.59847459 51.39771189 -144.25742165 51.07293713 -140.25854492 49.59350586 C-139.0374704 49.13618576 -137.81639587 48.67886566 -136.55831909 48.20768738 C-135.19908258 47.70994465 -133.83979751 47.21233451 -132.48046875 46.71484375 C-131.05623281 46.18521522 -129.63234111 45.65466017 -128.20877075 45.12324524 C-124.34442282 43.68337559 -120.475777 42.25540478 -116.60617447 40.82972717 C-112.5667716 39.33962793 -108.53084639 37.8401787 -104.49487305 36.34082031 C-103.68092355 36.03844641 -102.86697405 35.7360725 -102.02835941 35.42453575 C-100.36653774 34.80716908 -98.70473013 34.18976454 -97.04293633 33.57232285 C-94.50270994 32.62902167 -91.96196327 31.6871321 -89.42115784 30.74539185 C-78.41793848 26.66371569 -67.43982719 22.5201139 -56.47851372 18.32725716 C-54.06319091 17.40375677 -51.64721254 16.4819949 -49.23097229 15.56089783 C-48.05634383 15.11308063 -48.05634383 15.11308063 -46.8579855 14.65621662 C-45.29911252 14.06194658 -43.74022205 13.46772242 -42.18131351 12.87354565 C-38.37253639 11.42089299 -34.5656492 9.96360238 -30.76229858 8.49679565 C-27.19198156 7.11998742 -23.61741293 5.7548679 -20.03933334 4.39836693 C-18.72954711 3.89927015 -17.42144591 3.39572513 -16.11520767 2.88741493 C-14.33428317 2.19491927 -12.54679409 1.51937707 -10.7590332 0.84472656 C-9.76152542 0.46205627 -8.76401764 0.07938599 -7.73628235 -0.31488037 C-4.74325912 -1.06428365 -2.93752862 -0.84457796 0 0 Z " fill="#8538FE" transform="translate(350,1)"/>
<path d="M0 0 C3.62659322 12.65429513 6.87029255 25.37700218 9.94278717 38.17640686 C10.72190314 41.42197421 11.50488689 44.66658861 12.28875732 47.91101074 C13.94594112 54.77318105 15.59812189 61.63655093 17.25 68.5 C19.17985666 76.51567533 21.1117755 84.53084708 23.0474472 92.54512024 C23.81895791 95.74324981 24.58744906 98.94209501 25.35577393 102.14099121 C25.82461304 104.08426101 26.29357968 106.02750006 26.76269531 107.97070312 C27.08214615 109.30608376 27.08214615 109.30608376 27.40805054 110.66844177 C27.6041391 111.47817947 27.80022766 112.28791718 28.0022583 113.12219238 C28.25661085 114.17944897 28.25661085 114.17944897 28.51610184 115.25806427 C28.96499736 117.08957486 28.96499736 117.08957486 30 119 C30.51507614 118.81429947 31.03015228 118.62859894 31.56083679 118.43727112 C36.92893373 116.50269152 42.2987861 114.57304706 47.66967773 112.64624023 C49.67306089 111.92679862 51.67599525 111.20610595 53.6784668 110.48413086 C56.55920809 109.44574904 59.44154099 108.41189808 62.32421875 107.37890625 C63.66355721 106.89448814 63.66355721 106.89448814 65.029953 106.40028381 C65.87044693 106.10004807 66.71094086 105.79981232 67.5769043 105.49047852 C68.31192673 105.22622574 69.04694916 104.96197296 69.804245 104.68971252 C72.2089906 103.93435359 74.49929902 103.33401719 77 103 C81.08698337 105.82196471 82.39703992 109.88342421 83.875 114.4375 C84.1121875 115.09298828 84.349375 115.74847656 84.59375 116.42382812 C85.5836105 119.39639114 86.11847318 121.51106161 85.37329102 124.58642578 C83.57900308 127.73990676 82.20132173 128.13093367 78.78515625 129.24609375 C77.71507324 129.60558105 76.64499023 129.96506836 75.54248047 130.33544922 C74.39408691 130.69912598 73.24569336 131.06280273 72.0625 131.4375 C70.89348145 131.82437988 69.72446289 132.21125977 68.52001953 132.60986328 C65.01999672 133.7618604 61.51218227 134.8856891 58 136 C56.53554443 136.46768799 56.53554443 136.46768799 55.04150391 136.94482422 C51.74503576 137.99572567 48.44869958 139.04565078 45.14086914 140.06030273 C41.00154721 141.33221475 36.94324932 142.73149334 32.89794922 144.27685547 C30.07251384 145.35338487 27.22372262 146.36196976 24.375 147.375 C23.16585937 147.80554688 21.95671875 148.23609375 20.7109375 148.6796875 C19.48632812 149.11539063 18.26171875 149.55109375 17 150 C14.66654963 150.83300556 12.33321469 151.66633453 10 152.5 C-13.33333333 160.83333333 -36.66666667 169.16666667 -60 177.5 C-61.15757812 177.91378906 -62.31515625 178.32757813 -63.5078125 178.75390625 C-65.81416155 179.57686525 -68.12143837 180.39722931 -70.4296875 181.21484375 C-82.2208861 185.3992487 -93.94743142 189.69270474 -105.5 194.5 C-111.22585327 196.87603435 -116.9641552 199.21093993 -122.75 201.4375 C-123.73323242 201.82615234 -123.73323242 201.82615234 -124.73632812 202.22265625 C-128.28248734 203.56864369 -131.20281978 204.29710761 -135 204 C-138.64420207 197.25822616 -142.40856706 189.79095122 -142 182 C-136.14068731 178.92801217 -130.26994861 176.51429033 -124.03125 174.328125 C-122.64987854 173.83720367 -122.64987854 173.83720367 -121.24060059 173.33636475 C-118.32874682 172.30276119 -115.41444412 171.27627382 -112.5 170.25 C-110.51285401 169.54604365 -108.52587311 168.8416211 -106.5390625 168.13671875 C-101.69460005 166.41908408 -96.84792985 164.70782233 -92 163 C-96.8166999 153.26119342 -101.75494991 143.6131892 -106.9375 134.0625 C-113.02906702 122.78610566 -118.9304029 111.41957188 -124.76959229 100.01077271 C-129.77712227 90.23276483 -134.88576547 80.52467742 -140.24682617 70.93408203 C-142.41304814 67.0357539 -144.51096165 63.11096372 -146.44921875 59.09375 C-146.79686279 58.37896484 -147.14450684 57.66417969 -147.50268555 56.92773438 C-147.66679932 56.29158203 -147.83091309 55.65542969 -148 55 C-145.59847459 51.39771189 -144.25742165 51.07293713 -140.25854492 49.59350586 C-139.0374704 49.13618576 -137.81639587 48.67886566 -136.55831909 48.20768738 C-135.19908258 47.70994465 -133.83979751 47.21233451 -132.48046875 46.71484375 C-131.05623281 46.18521522 -129.63234111 45.65466017 -128.20877075 45.12324524 C-124.34442282 43.68337559 -120.475777 42.25540478 -116.60617447 40.82972717 C-112.5667716 39.33962793 -108.53084639 37.8401787 -104.49487305 36.34082031 C-103.68092355 36.03844641 -102.86697405 35.7360725 -102.02835941 35.42453575 C-100.36653774 34.80716908 -98.70473013 34.18976454 -97.04293633 33.57232285 C-94.50270994 32.62902167 -91.96196327 31.6871321 -89.42115784 30.74539185 C-78.41793848 26.66371569 -67.43982719 22.5201139 -56.47851372 18.32725716 C-54.06319091 17.40375677 -51.64721254 16.4819949 -49.23097229 15.56089783 C-48.05634383 15.11308063 -48.05634383 15.11308063 -46.8579855 14.65621662 C-45.29911252 14.06194658 -43.74022205 13.46772242 -42.18131351 12.87354565 C-38.37253639 11.42089299 -34.5656492 9.96360238 -30.76229858 8.49679565 C-27.19198156 7.11998742 -23.61741293 5.7548679 -20.03933334 4.39836693 C-18.72954711 3.89927015 -17.42144591 3.39572513 -16.11520767 2.88741493 C-14.33428317 2.19491927 -12.54679409 1.51937707 -10.7590332 0.84472656 C-9.76152542 0.46205627 -8.76401764 0.07938599 -7.73628235 -0.31488037 C-4.74325912 -1.06428365 -2.93752862 -0.84457796 0 0 Z " fill="#06062E" transform="translate(350,1)"/>
<path d="M0 0 C7.22746777 2.94558257 14.34500319 6.14396907 21.45996094 9.34960938 C45.06905344 19.97226717 69.21221555 28.10743014 94.66064453 33.08837891 C99.97566237 46.92748195 99.13456902 58.69807251 93.12939453 72.24462891 C86.56778989 84.94901237 74.65757936 94.35635682 63.66064453 103.08837891 C62.54988555 103.99945462 61.44057178 104.91229443 60.33251953 105.82666016 C20.63396693 138.40081366 -25.22976129 163.29314467 -75.33935547 175.08837891 C-76.4731665 175.35835693 -76.4731665 175.35835693 -77.62988281 175.63378906 C-89.81573998 178.47471759 -102.23703928 179.7075954 -114.70263672 180.51416016 C-137.73520706 181.7126917 -137.73520706 181.7126917 -158.51904297 190.91650391 C-160.33935547 192.08837891 -160.33935547 192.08837891 -162.33935547 192.08837891 C-165.4273416 187.07040144 -166.23999528 182.84419198 -165.33935547 177.08837891 C-162.28877596 170.47878997 -157.02926994 167.55118451 -150.49169922 164.95947266 C-138.94997688 161.08362786 -127.16411294 160.26849072 -115.11108398 159.44555664 C-86.08528128 157.42435591 -59.42817929 150.59807589 -32.33935547 140.08837891 C-32.33935547 139.75837891 -32.33935547 139.42837891 -32.33935547 139.08837891 C-32.95117676 138.99862793 -33.56299805 138.90887695 -34.19335938 138.81640625 C-69.16253468 133.58828341 -112.05918239 123.0961348 -135.22607422 93.69384766 C-139.33549132 87.69389969 -142.12566514 82.55832074 -141.33935547 75.08837891 C-139.09950512 70.32869691 -136.41814685 67.98450841 -131.72998047 65.90087891 C-119.11114239 61.61212348 -105.75498515 62.81233856 -92.77685547 64.46337891 C-88.29877317 65.01435451 -83.81935226 65.55320868 -79.33935547 66.08837891 C-78.64683685 66.17522949 -77.95431824 66.26208008 -77.24081421 66.3515625 C-65.30842547 67.83631555 -53.54569219 68.40482545 -41.52319336 68.34912109 C-38.77484162 68.33837103 -36.02714118 68.34911187 -33.27880859 68.36181641 C-21.83578245 68.36947752 -10.6791546 67.61530838 0.66064453 66.08837891 C-0.10135254 65.39309082 -0.86334961 64.69780273 -1.6484375 63.98144531 C-3.09786424 62.65878753 -4.54709067 61.33590932 -5.99511719 60.01171875 C-8.76507885 57.48733135 -11.58113428 55.04383576 -14.46435547 52.65087891 C-25.94409345 42.59734056 -38.75954933 25.91052644 -40.67529297 10.36181641 C-40.85986112 5.5488468 -40.71089157 1.79706862 -37.33935547 -1.91162109 C-25.87740409 -8.67334781 -11.66142462 -4.5443289 0 0 Z " fill="#5D11D3" transform="translate(165.33935546875,559.91162109375)"/>
<path d="M0 0 C3.11666774 4.46722376 3.78550331 8.68892646 3 14 C0.95469045 22.70474005 -2.81797506 29.77526813 -8 37 C-8.53882813 37.763125 -9.07765625 38.52625 -9.6328125 39.3125 C-17.58057015 49.86198998 -27.60258028 59.85995186 -38 68 C-25.34774884 69.64900816 -12.88249797 70.43279986 -0.125 70.4375 C0.78122101 70.44056152 1.68744202 70.44362305 2.62112427 70.44677734 C20.30448761 70.46213699 37.62332869 68.72950271 55.13934326 66.43022156 C70.03777315 64.48384339 86.69433777 62.62236082 100 71 C103.06033578 73.76417426 103.71137144 76.77918494 104.05078125 80.8671875 C103.82849515 90.20320361 96.70015262 97.46803614 90.3359375 103.54296875 C63.92105534 126.50469246 29.09178366 136.61583588 -5 141 C13.10678701 159.10678701 59.34653123 160.32033305 83.46704102 161.78588867 C91.22112624 162.28988921 98.69533411 163.14899667 106.2734375 164.9140625 C106.96536697 165.0747522 107.65729645 165.23544189 108.37019348 165.40100098 C115.7500821 167.24695278 121.4455407 170.26307932 126.625 175.8125 C128.44516951 180.03198386 128.81417768 183.47505097 128 188 C126.89302953 190.60519774 125.60557178 192.64181645 124 195 C123.48953125 194.61328125 122.9790625 194.2265625 122.453125 193.828125 C109.24775644 184.36896029 94.20776596 183.39035822 78.48168945 182.35693359 C43.50827151 180.02717081 9.39584679 171.86723844 -22 156 C-22.91120605 155.54496094 -23.82241211 155.08992187 -24.76123047 154.62109375 C-55.37218168 139.27883203 -83.08330175 120.32770142 -109 98 C-109.75152344 97.36191406 -110.50304687 96.72382812 -111.27734375 96.06640625 C-125.12928793 84.18939273 -133.82549783 72.88119559 -136.34765625 54.4609375 C-136.59953896 48.43765531 -135.67399363 41.39003119 -133 36 C-130.5625 34.81640625 -130.5625 34.81640625 -127 34 C-125.33581519 33.59164396 -123.67176601 33.18273499 -122.0078125 32.7734375 C-121.0681665 32.55083252 -120.12852051 32.32822754 -119.16040039 32.09887695 C-97.44185334 26.919476 -77.21553783 19.52329129 -56.90087891 10.31201172 C-14.59700964 -8.82121446 -14.59700964 -8.82121446 0 0 Z " fill="#5D11D3" transform="translate(670,558)"/>
<path d="M0 0 C12.0024811 10.0937359 19.75728814 22.56561703 23.99609375 37.6328125 C24.23972656 38.43460937 24.48335937 39.23640625 24.734375 40.0625 C28.22550439 53.78952578 26.51158276 68.43127867 21.99609375 81.6328125 C21.70734375 82.53257812 21.41859375 83.43234375 21.12109375 84.359375 C17.94444339 93.29370413 12.21181849 101.52357733 5.99609375 108.6328125 C5.33609375 108.6328125 4.67609375 108.6328125 3.99609375 108.6328125 C3.99609375 109.2928125 3.99609375 109.9528125 3.99609375 110.6328125 C-10.82431157 124.30357424 -28.71731356 131.25760435 -48.87890625 131.0703125 C-50.01714844 131.06346436 -51.15539062 131.05661621 -52.328125 131.04956055 C-60.83126222 130.88739357 -68.10371741 129.96553393 -76.00390625 126.6328125 C-76.88433594 126.27058594 -77.76476562 125.90835938 -78.671875 125.53515625 C-97.66763112 116.84717477 -111.45472586 101.09185674 -118.97265625 81.7890625 C-125.22054964 62.66672212 -124.70762848 42.21508531 -115.69140625 24.0703125 C-112.65708757 18.43328082 -109.10005907 13.52874187 -105.00390625 8.6328125 C-104.34390625 7.6428125 -103.68390625 6.6528125 -103.00390625 5.6328125 C-102.34390625 5.6328125 -101.68390625 5.6328125 -101.00390625 5.6328125 C-101.00390625 4.9728125 -101.00390625 4.3128125 -101.00390625 3.6328125 C-100.34390625 3.6328125 -99.68390625 3.6328125 -99.00390625 3.6328125 C-99.00390625 2.9728125 -99.00390625 2.3128125 -99.00390625 1.6328125 C-70.62562559 -23.97978827 -29.43904691 -23.19904087 0 0 Z " fill="#FEFDFE" transform="translate(482.00390625,426.3671875)"/>
<path d="M0 0 C3.32064756 2.31295171 3.97815407 5.90063796 5.23583984 9.60864258 C5.52072266 10.36854492 5.80560547 11.12844727 6.09912109 11.91137695 C6.35822266 12.65323242 6.61732422 13.39508789 6.88427734 14.15942383 C7.2388501 15.16936401 7.2388501 15.16936401 7.60058594 16.19970703 C7.96913143 19.16846888 7.35980529 20.72196429 5.86083984 23.29614258 C3.54858398 24.59472656 3.54858398 24.59472656 0.64599609 25.54223633 C-0.42408691 25.90172363 -1.49416992 26.26121094 -2.59667969 26.6315918 C-3.74507324 26.99526855 -4.8934668 27.35894531 -6.07666016 27.73364258 C-7.24567871 28.12052246 -8.41469727 28.50740234 -9.61914062 28.90600586 C-13.11916344 30.05800298 -16.62697789 31.18183168 -20.13916016 32.29614258 C-21.11546387 32.60793457 -22.09176758 32.91972656 -23.09765625 33.2409668 C-26.39412439 34.29186825 -29.69046058 35.34179336 -32.99829102 36.35644531 C-37.13761295 37.62835733 -41.19591083 39.02763591 -45.24121094 40.57299805 C-48.06664631 41.64952745 -50.91543753 42.65811234 -53.76416016 43.67114258 C-54.97330078 44.10168945 -56.18244141 44.53223633 -57.42822266 44.97583008 C-58.65283203 45.4115332 -59.87744141 45.84723633 -61.13916016 46.29614258 C-63.47261052 47.12914814 -65.80594547 47.96247711 -68.13916016 48.79614258 C-103.13916016 61.29614258 -103.13916016 61.29614258 -138.13916016 73.79614258 C-139.29673828 74.20993164 -140.45431641 74.6237207 -141.64697266 75.05004883 C-143.9533217 75.87300783 -146.26059852 76.69337189 -148.56884766 77.51098633 C-160.36004626 81.69539127 -172.08659157 85.98884732 -183.63916016 90.79614258 C-189.36501342 93.17217693 -195.10331536 95.50708251 -200.88916016 97.73364258 C-201.54464844 97.99274414 -202.20013672 98.2518457 -202.87548828 98.51879883 C-206.4216475 99.86478627 -209.34197994 100.59325019 -213.13916016 100.29614258 C-216.78336223 93.55436874 -220.54772722 86.0870938 -220.13916016 78.29614258 C-214.27984746 75.22415475 -208.40910876 72.81043291 -202.17041016 70.62426758 C-201.24949585 70.29698669 -200.32858154 69.96970581 -199.37976074 69.63250732 C-196.46790698 68.59890377 -193.55360427 67.5724164 -190.63916016 66.54614258 C-188.65201417 65.84218623 -186.66503327 65.13776368 -184.67822266 64.43286133 C-179.83376021 62.71522665 -174.98709 61.0039649 -170.13916016 59.29614258 C-170.57228516 58.46469727 -171.00541016 57.63325195 -171.45166016 56.77661133 C-172.00853516 55.68993164 -172.56541016 54.60325195 -173.13916016 53.48364258 C-173.97447266 51.86522461 -173.97447266 51.86522461 -174.82666016 50.21411133 C-176.13916016 47.29614258 -176.13916016 47.29614258 -176.13916016 44.29614258 C-166.1709592 40.33534775 -156.16742072 36.56012023 -146.02685547 33.06347656 C-139.35487407 30.75075281 -132.7435087 28.29487196 -126.13916016 25.79614258 C-117.9901826 22.71566847 -109.81552123 19.74200771 -101.58325195 16.89208984 C-95.35073146 14.73144117 -89.14781382 12.49633412 -82.95166016 10.23364258 C-81.11834569 9.56692404 -79.28501265 8.90025656 -77.45166016 8.23364258 C-73.98922064 6.97365731 -70.53172312 5.7011973 -67.07666016 4.42114258 C-65.53513079 3.85826641 -63.99347159 3.29574565 -62.45166016 2.73364258 C-61.75081299 2.46994873 -61.04996582 2.20625488 -60.32788086 1.93457031 C-55.47977953 0.18260279 -55.47977953 0.18260279 -52.13916016 1.29614258 C-51.25928409 3.67681059 -50.56657122 5.91096158 -49.95166016 8.35864258 C-49.77441406 9.02186523 -49.59716797 9.68508789 -49.41455078 10.3684082 C-48.9781082 12.00801683 -48.55715796 13.65173496 -48.13916016 15.29614258 C-47.6218634 15.11044205 -47.10456665 14.92474152 -46.57159424 14.7334137 C-41.18673652 12.80076765 -35.80092449 10.87079959 -30.41455078 8.94238281 C-28.404539 8.22236649 -26.39477144 7.50166802 -24.38525391 6.78027344 C-21.49657116 5.74340189 -18.60701866 4.70898773 -15.71728516 3.67504883 C-14.81923157 3.35210342 -13.92117798 3.02915802 -12.99591064 2.69642639 C-12.15534119 2.39619064 -11.31477173 2.0959549 -10.44873047 1.78662109 C-9.71148743 1.52236832 -8.97424438 1.25811554 -8.21466064 0.9858551 C-2.63700206 -0.86766457 -2.63700206 -0.86766457 0 0 Z " fill="#07072F" transform="translate(428.13916015625,104.703857421875)"/>
<path d="M0 0 C0.42744507 0.86443726 0.42744507 0.86443726 0.86352539 1.74633789 C8.57706158 17.22376571 17.23594876 31.73332779 27 46 C27.55252441 46.80759766 28.10504883 47.61519531 28.67431641 48.44726562 C37.61383557 61.43925735 47.08812158 73.909968 57.35546875 85.8828125 C59.76549028 88.70129756 62.07117599 91.59389658 64.375 94.5 C71.38345831 103.10643714 79.40201655 110.97215837 87.8671875 118.14453125 C90.12294688 120.10695928 92.29689483 122.14695693 94.47241211 124.19750977 C125.00160086 152.87753802 161.29799767 174.01307891 202.01733398 183.98510742 C215.12718351 187.27537833 227.99390259 191.30060742 237 202 C239.02551071 206.21715164 239.53839759 209.30824955 239 214 C237.19721025 218.89435068 235.39733216 222.94423792 231.1875 226.125 C230.465625 226.41375 229.74375 226.7025 229 227 C228.67 226.01 228.34 225.02 228 224 C226.13357924 222.90771823 226.13357924 222.90771823 224 222 C222.84808134 221.23829044 221.70248554 220.46695559 220.5625 219.6875 C211.47631273 214.04779756 201.53529542 211.54640205 191.25 209.0625 C175.12354168 205.15663992 160.61161412 199.85423708 146 192 C145.3414502 191.65066406 144.68290039 191.30132813 144.00439453 190.94140625 C124.24605493 180.40876928 106.61032442 167.09061267 90.140625 151.95703125 C88.21228157 150.19407494 86.2437201 148.50046051 84.25 146.8125 C75.19237342 138.91705361 66.75629669 130.16653245 59 121 C58.01732071 119.87871996 57.03275019 118.75909611 56.046875 117.640625 C49.02914507 109.66041014 42.31337701 101.55471762 36 93 C35.4946875 92.31534668 34.989375 91.63069336 34.46875 90.92529297 C-5.56600598 36.46695754 -5.56600598 36.46695754 -7.5625 9.4375 C-6.90189337 5.40045951 -4.85403385 0 0 0 Z " fill="#5D11D3" transform="translate(495,639)"/>
<path d="M0 0 C2.46800047 1.15173355 4.04783565 2.04783565 6 4 C10.18101652 25.26864924 -6.20408058 50.0105142 -17.55664062 66.92211914 C-27.23043744 81.10118271 -37.21027624 95.10328814 -48.47265625 108.0703125 C-50.96329688 110.95745387 -53.36182241 113.90286667 -55.75 116.875 C-58.7681798 120.58596484 -61.89363446 124.01556348 -65.33203125 127.3359375 C-67.09054949 129.09033743 -68.69890935 130.92433565 -70.3125 132.8125 C-76.27390397 139.70955034 -82.77418684 146.13267325 -89.7109375 152.046875 C-91.48285912 153.55875351 -93.23413386 155.09484841 -94.9765625 156.640625 C-122.71099587 181.11098232 -154.65629052 199.70903404 -190.5534668 208.82177734 C-206.92007059 212.9604668 -206.92007059 212.9604668 -221.8515625 220.66796875 C-224.15566842 222.09651442 -226.4618956 223.06045609 -229 224 C-229 224.99 -229 225.98 -229 227 C-233.49057919 225.50314027 -235.6652467 221.89704176 -238 218 C-239.61548175 213.15355476 -239.56766728 208.81653531 -238.0625 204 C-229.59942835 191.6900776 -216.5048555 187.86587807 -202.69497681 184.23516846 C-156.84415846 172.10409198 -117.77079592 147.99991223 -84.375 114.36328125 C-82.86511142 112.86626104 -81.26302704 111.54298526 -79.625 110.1875 C-69.71723058 101.55697526 -61.11036405 91.29492986 -53 81 C-52.24879883 80.05761475 -52.24879883 80.05761475 -51.48242188 79.09619141 C-37.95151421 62.11066889 -25.60081939 44.4393033 -14.20556641 25.95458984 C-13.2008134 24.3255796 -12.18567375 22.70298144 -11.16796875 21.08203125 C-6.97222966 14.29578306 -3.49020539 7.1662797 0 0 Z " fill="#5D11D3" transform="translate(303,639)"/>
<path d="M0 0 C6.35590398 1.20628144 12.59025334 2.91992924 18.84884644 4.54719543 C65.46043579 16.64074115 111.72104374 21.62061963 159.66601562 14.78515625 C168.43096139 13.54399738 177.01422028 12.71304621 185.875 12.6875 C186.76002197 12.68218262 187.64504395 12.67686523 188.55688477 12.67138672 C202.82650609 12.82650609 202.82650609 12.82650609 207 17 C186.5330866 46.83557094 146.40484899 58.12261532 112.82666016 64.40673828 C102.36717059 66.28611586 95.17470423 66.6578534 85.5625 61.875 C84.66088135 61.43559082 83.7592627 60.99618164 82.83032227 60.54345703 C67.32195913 52.83504829 52.14703082 44.00295108 38 34 C37.46294434 33.62456055 36.92588867 33.24912109 36.37255859 32.86230469 C27.72581173 26.81566258 19.29776699 20.51597433 11 14 C10.46616699 13.5879834 9.93233398 13.1759668 9.38232422 12.75146484 C7.83039662 11.55269874 6.28996826 10.3390911 4.75 9.125 C3.85796875 8.42632813 2.9659375 7.72765625 2.046875 7.0078125 C-0.06048287 4.94067138 -0.7727481 3.91639944 -1 1 C-0.67 0.67 -0.34 0.34 0 0 Z " fill="#8538FE" transform="translate(563,633)"/>
<path d="M0 0 C-10.99575529 26.58314465 -61.68330545 48.40281171 -86.16918945 60.09741211 C-87.46902559 60.73823011 -88.75285586 61.41197769 -90.02416992 62.10766602 C-104.54940829 69.93529891 -128.88301369 60.97233527 -143.9375 56.6875 C-167.07649036 49.73654617 -193.52225048 36.88629375 -208 17 C-208 16.34 -208 15.68 -208 15 C-191.01073706 7.50473694 -169.09621793 12.49278544 -151.375 15.02734375 C-102.21540852 21.84333223 -52.29709814 13.55768449 -5.16308594 -0.57983398 C-3 -1 -3 -1 0 0 Z " fill="#8538FE" transform="translate(236,634)"/>
<path d="M0 0 C0.94921875 2.58203125 0.94921875 2.58203125 1.6875 5.8125 C1.93886719 6.87082031 2.19023437 7.92914063 2.44921875 9.01953125 C3 12 3 12 3 16 C0.96884787 16.71090324 -1.06231223 17.4217837 -3.09350586 18.13256836 C-4.89132617 18.76191286 -6.68901118 19.39164398 -8.48657227 20.02172852 C-13.00236844 21.60403968 -17.51959318 23.18166315 -22.04296875 24.7421875 C-31.47563359 28.00452106 -40.82632764 31.42878766 -50.13989258 35.01708984 C-56.92173203 37.61867061 -63.75177381 40.05119599 -70.61669922 42.42358398 C-76.31483515 44.39653407 -81.97489146 46.45631856 -87.625 48.5625 C-94.05907538 50.94586439 -100.50929871 53.27501016 -107 55.5 C-108.14009521 55.90134155 -108.14009521 55.90134155 -109.30322266 56.31079102 C-114.65147059 58.11617647 -114.65147059 58.11617647 -118 57 C-119.60546875 54.6015625 -119.60546875 54.6015625 -121.1875 51.625 C-121.71730469 50.64789063 -122.24710938 49.67078125 -122.79296875 48.6640625 C-124 46 -124 46 -124 43 C-114.03179905 39.03920518 -104.02826056 35.26397766 -93.88769531 31.76733398 C-87.21571391 29.45461024 -80.60434855 26.99872939 -74 24.5 C-65.85102245 21.41952589 -57.67636107 18.44586513 -49.4440918 15.59594727 C-43.2115713 13.43529859 -37.00865367 11.20019154 -30.8125 8.9375 C-28.97918553 8.27078146 -27.14585249 7.60411399 -25.3125 6.9375 C-21.85006048 5.67751473 -18.39256296 4.40505472 -14.9375 3.125 C-13.39597064 2.56212383 -11.85431143 1.99960307 -10.3125 1.4375 C-9.61165283 1.17380615 -8.91080566 0.9101123 -8.1887207 0.63842773 C-3.34061937 -1.11353979 -3.34061937 -1.11353979 0 0 Z " fill="#66EA93" transform="translate(376,106)"/>
<path d="M0 0 C6.30286541 4.60122788 10.65653119 9.71123415 12.80859375 17.3203125 C13.9016056 24.49941304 12.41093788 31.52774896 8.296875 37.5234375 C4.10306577 42.61255432 -0.15923107 46.01258001 -6.50390625 48.0703125 C-7.39078125 48.1528125 -8.27765625 48.2353125 -9.19140625 48.3203125 C-9.91070312 48.39507813 -10.63 48.46984375 -11.37109375 48.546875 C-18.34325004 48.95955715 -23.44311331 47.2716434 -29.19140625 43.3203125 C-34.25793949 38.73376662 -37.95859585 33.39340975 -38.484375 26.453125 C-38.46472418 25.11686948 -38.42937371 23.78075924 -38.37890625 22.4453125 C-38.36537109 21.75695312 -38.35183594 21.06859375 -38.33789062 20.359375 C-38.30288995 18.67934249 -38.24909579 16.999719 -38.19140625 15.3203125 C-33.01193549 16.10870978 -28.40966187 18.19494328 -23.63085938 20.23632812 C-20.19359402 21.66305234 -17.97710492 22.3203125 -14.19140625 22.3203125 C-14.25832139 19.30020927 -14.45541241 17.10010017 -16.58642578 14.84228516 C-18.43339385 13.36828713 -20.3170539 11.98652651 -22.25390625 10.6328125 C-24.64921052 8.92653647 -26.91462545 7.19167943 -29.19140625 5.3203125 C-29.19140625 4.3303125 -29.19140625 3.3403125 -29.19140625 2.3203125 C-20.23026265 -3.02190772 -9.64564869 -5.73525057 0 0 Z " fill="#09092F" transform="translate(459.19140625,469.6796875)"/>
<path d="M0 0 C9.06081858 6.13262721 15.56844634 12.56471402 19.0625 23.046875 C19.29098563 27.38810198 18.01470263 30.43456864 15.25 33.734375 C10.62479164 37.51863638 4.8564143 36.932588 -0.8125 36.421875 C-12.34369952 33.76698024 -23.37553899 26.27884833 -30.12890625 16.51953125 C-32.89372083 11.65461361 -33.85962195 6.96421743 -32.8125 1.421875 C-31.03682699 -1.66911136 -29.61906876 -3.10762656 -26.5625 -4.890625 C-17.39651193 -7.18212202 -8.10962329 -4.55039973 0 0 Z " fill="#5D11D3" transform="translate(537.8125,261.578125)"/>
<path d="M0 0 C5.04178651 2.14079323 10.27890679 4.77235866 14.56640625 8.20703125 C14.56640625 8.86703125 14.56640625 9.52703125 14.56640625 10.20703125 C15.22640625 10.20703125 15.88640625 10.20703125 16.56640625 10.20703125 C19.6028435 15.5511608 19.6028435 15.5511608 19.44140625 18.45703125 C18.56640625 20.20703125 18.56640625 20.20703125 15.56640625 22.20703125 C6.62586595 23.80887805 -1.97226061 19.9712528 -9.37109375 15.26953125 C-13.84775302 12.07420558 -16.93201103 9.42235494 -18.18359375 3.89453125 C-18.26609375 3.00765625 -18.34859375 2.12078125 -18.43359375 1.20703125 C-13.08152331 -3.40682258 -6.28054875 -2.04647094 0 0 Z " fill="#5E12D4" transform="translate(481.43359375,223.79296875)"/>
<path d="M0 0 C4.34981032 1.87491824 8.8828536 4.6245641 11 9 C11 11.125 11 11.125 10 13 C8.0625 14.4375 8.0625 14.4375 5 15 C-0.605809 14.03348121 -6.20252447 12.40997158 -10 8 C-10.8125 4.25 -10.8125 4.25 -11 1 C-7.48960235 -0.75519883 -3.83070053 -0.54898575 0 0 Z " fill="#5E12D4" transform="translate(480,252)"/>
</svg>
